<svg width="512" height="512" viewBox="0 0 512 512" xmlns="http://www.w3.org/2000/svg">
  <defs>
    <radialGradient id="bgGlow" cx="50%" cy="42%" r="65%">
      <stop offset="0%" stop-color="#0D0D0F"/>
      <stop offset="100%" stop-color="#050505"/>
    </radialGradient>
    <linearGradient id="boltGrad" x1="0%" y1="0%" x2="100%" y2="100%">
      <stop offset="0%" stop-color="#00E5FF"/>
      <stop offset="100%" stop-color="#00A3D1"/>
    </linearGradient>
    <filter id="glow" x="-50%" y="-50%" width="200%" height="200%">
      <feGaussianBlur stdDeviation="10" result="blur"/>
      <feMerge>
        <feMergeNode in="blur"/>
        <feMergeNode in="SourceGraphic"/>
      </feMerge>
    </filter>
  </defs>

  <rect width="512" height="512"  fill="url(#bgGlow)"/>

  <g stroke="#00D1FF" stroke-width="3" opacity="0.16" stroke-linecap="round">
    <line x1="120" y1="160" x2="180" y2="160"/>
    <line x1="120" y1="160" x2="120" y2="220"/>
    <circle cx="120" cy="160" r="6" fill="#00D1FF"/>
    <line x1="392" y1="352" x2="332" y2="352"/>
    <line x1="392" y1="352" x2="392" y2="292"/>
    <circle cx="392" cy="352" r="6" fill="#00D1FF"/>
    <line x1="380" y1="130" x2="380" y2="175"/>
    <circle cx="380" cy="130" r="5" fill="#00FF94"/>
    <line x1="132" y1="382" x2="132" y2="337"/>
    <circle cx="132" cy="382" r="5" fill="#00FF94"/>
  </g>

  <g filter="url(#glow)">
    <path d="M 268 76
             L 168 296
             L 234 296
             L 210 436
             L 348 228
             L 274 228
             Z"
          fill="url(#boltGrad)"/>
    <circle cx="268" cy="76" r="10" fill="#00FF94"/>
    <circle cx="234" cy="296" r="8" fill="#FFFFFF" opacity="0.9"/>
    <circle cx="274" cy="228" r="8" fill="#FFFFFF" opacity="0.9"/>
    <circle cx="210" cy="436" r="10" fill="#00FF94"/>
  </g>
</svg>
